<svg width="136" height="131" viewBox="0 0 136 131" fill="none" xmlns="http://www.w3.org/2000/svg">
<path d="M35.2985 13.4091C32.8267 14.8683 30.6229 11.116 33.0947 9.65675C64.8109 -9.10496 105.7 2.569 123.002 34.6724C123.568 35.7445 123.181 37.0548 122.138 37.6206C121.066 38.1865 119.756 37.7993 119.19 36.757C102.9 6.52981 64.662 -3.95293 35.2985 13.4091ZM99.3861 115.824C100.399 115.169 101.739 115.437 102.394 116.45C103.049 117.462 102.781 118.802 101.798 119.457C79.7607 134.05 51.0523 133.841 29.2828 118.832C18.532 111.446 10.1339 100.874 5.42861 88.5155C5.01169 87.3839 5.57752 86.1331 6.6794 85.7161C7.81105 85.2694 9.06183 85.865 9.50854 86.9669C23.3267 123.329 67.3423 137.147 99.3861 115.824ZM76.0084 68.503C76.0084 71.3619 71.6604 71.3619 71.6604 68.503C71.6604 58.8541 83.394 53.9701 90.2435 60.8196C92.209 62.7852 93.43 65.525 93.43 68.503C93.43 79.0155 83.9598 76.5437 83.5429 83.2444C83.3642 86.1033 79.0162 85.8353 79.1949 82.9763C79.8203 73.2381 89.082 75.9779 89.082 68.5328C89.082 62.7554 82.0241 59.8071 77.9441 63.9168C76.7529 65.0485 76.0084 66.6864 76.0084 68.503ZM99.9519 68.503C99.9519 71.3619 95.604 71.3619 95.604 68.503C95.604 58.8541 107.337 53.9701 114.187 60.8196C116.153 62.7852 117.374 65.525 117.374 68.503C117.374 79.0155 107.903 76.5437 107.486 83.2444C107.308 86.1033 102.96 85.8353 103.138 82.9763C103.764 73.2381 113.026 75.9779 113.026 68.5328C113.026 62.7554 105.968 59.8071 101.888 63.9168C100.696 65.0485 99.9519 66.6864 99.9519 68.503ZM103.109 88.6644C103.109 85.7757 107.457 85.7757 107.457 88.6644V90.0343C107.457 92.8932 103.109 92.8932 103.109 90.0343V88.6644ZM79.1651 88.6644C79.1651 85.7757 83.5131 85.7757 83.5131 88.6644V90.0343C83.5131 92.8932 79.1651 92.8932 79.1651 90.0343V88.6644ZM62.9943 43.5767H77.1698V27.4953C77.1698 24.815 74.9661 22.5815 72.2561 22.5815H9.38942C6.70918 22.5815 4.47564 24.7852 4.47564 27.4953V70.3494C4.47564 73.0297 6.6794 75.2632 9.38942 75.2632H19.217C20.438 75.2632 21.391 76.2459 21.391 77.4372V88.4857L33.9881 75.8886C34.4348 75.4717 34.9709 75.2632 35.5367 75.2632H53.7326V52.8683C53.7326 47.746 57.8721 43.5767 62.9943 43.5767ZM81.5476 43.5767H125.891C130.983 43.5767 135.152 47.746 135.152 52.8385V95.6926C135.152 100.785 130.983 104.954 125.891 104.954H118.237V119.07C118.237 121.006 115.884 121.989 114.515 120.589L98.85 104.925H62.9943C57.9019 104.925 53.7326 100.755 53.7326 95.6628V79.5516H36.4301L20.7656 95.2459C19.3957 96.6456 17.043 95.6628 17.043 93.7271V79.5814H9.38942C4.29696 79.5814 0.127686 75.4121 0.127686 70.3196V27.4953C0.127686 22.4028 4.29696 18.2335 9.38942 18.2335H72.2858C77.3783 18.2335 81.5476 22.4028 81.5476 27.4953V43.5767ZM125.891 47.9247H62.9943C60.3141 47.9247 58.0805 50.1285 58.0805 52.8385V95.6926C58.0805 98.3729 60.2843 100.606 62.9943 100.606H99.7435C100.309 100.606 100.875 100.815 101.292 101.232L113.889 113.829V102.78C113.889 101.589 114.872 100.606 116.063 100.606H125.891C128.571 100.606 130.805 98.4026 130.805 95.6926V52.8385C130.805 50.1285 128.571 47.9247 125.891 47.9247ZM58.7655 32.9451C61.6542 32.9451 61.6542 37.2931 58.7655 37.2931H33.2138C30.3549 37.2931 30.3549 32.9451 33.2138 32.9451H58.7655ZM45.3047 59.3008C48.1636 59.3008 48.1636 63.6488 45.3047 63.6488H13.9161C11.0571 63.6488 11.0571 59.3008 13.9161 59.3008H45.3047ZM45.3047 46.1379C48.1636 46.1379 48.1636 50.4858 45.3047 50.4858H13.9161C11.0571 50.4858 11.0571 46.1379 13.9161 46.1379H45.3047Z" fill="#6E9FFF"/>
</svg>
