<svg width="244" height="111" viewBox="0 0 244 111" fill="none" xmlns="http://www.w3.org/2000/svg">
<g clip-path="url(#clip0_230_39)">
<path d="M161.235 9.255L160.125 8.25L150.525 18.93L151.635 19.935C160.905 28.275 166.23 40.2 166.23 52.65C166.23 76.89 146.505 96.63 122.25 96.63C97.9949 96.63 78.2699 76.905 78.2699 52.65C78.2699 40.185 83.5949 28.26 92.8649 19.935L93.9749 18.93L84.3749 8.25L83.2649 9.255C70.9649 20.31 63.8999 36.135 63.8999 52.665C63.8999 84.84 90.0749 111 122.235 111C154.395 111 180.57 84.825 180.57 52.665C180.57 36.135 173.52 20.31 161.205 9.255H161.235Z" fill="white"/>
<path d="M129.435 0H115.065V57H129.435V0Z" fill="white"/>
<path d="M54.75 109.5L0.75 55.5L54.75 1.5L63.06 9.81L17.37 55.5L63.06 101.19L54.75 109.5Z" fill="white"/>
<path d="M189.75 1.5L243.75 55.5L189.75 109.5L181.44 101.19L227.13 55.5L181.44 9.81L189.75 1.5Z" fill="white"/>
</g>
<defs>
<clipPath id="clip0_230_39">
<rect width="243" height="111" fill="white" transform="translate(0.75)"/>
</clipPath>
</defs>
</svg>
