<svg width="128" height="97" viewBox="0 0 128 97" fill="none" xmlns="http://www.w3.org/2000/svg">
<path d="M98.3593 0.0347128C99.2096 0.0347128 100.06 0.359663 100.71 1.00956L126.37 26.6698C127.036 27.3359 127.496 28.197 127.578 29.1285C127.681 30.2821 127.274 31.3869 126.473 32.1885L100.807 57.8541C99.5237 59.1377 97.4061 59.2731 96.0846 58.022C94.7632 56.7709 94.6927 54.5721 96.0088 53.2507L119.4 29.8597C119.611 29.6485 119.611 29.3073 119.4 29.0961L96.1063 5.80257C94.774 4.47028 94.709 2.22271 96.0792 0.93374C96.7183 0.332583 97.5361 0.0292969 98.3539 0.0292969L98.3593 0.0347128Z" fill="white"/>
<path d="M29.2341 58.8919C28.3838 58.8919 27.5335 58.567 26.8836 57.9171L1.22345 32.2569C0.557302 31.5907 0.0969562 30.7296 0.0157188 29.7981C-0.087182 28.6445 0.319005 27.5397 1.12055 26.7381L26.7862 1.06712C28.0697 -0.216435 30.1873 -0.351831 31.5088 0.899226C32.8302 2.15028 32.9006 4.34911 31.5846 5.67057L8.1882 29.0615C7.97699 29.2728 7.97699 29.614 8.1882 29.8252L31.4817 53.1187C32.814 54.4509 32.879 56.6985 31.5088 57.9875C30.8697 58.5886 30.0519 58.8919 29.2341 58.8919Z" fill="white"/>
<path d="M63.7966 58.9751C48.0561 58.9751 35.2444 46.1681 35.2444 30.4228C35.2444 23.3839 37.8332 16.6191 42.5336 11.3848C43.743 10.0385 45.8121 9.92508 47.1585 11.1344C48.5048 12.3438 48.6182 14.4129 47.4089 15.7593C43.7902 19.7889 41.7967 24.9996 41.7967 30.4181C41.7967 42.5495 51.6652 52.4181 63.7966 52.4181C75.928 52.4181 85.7966 42.5495 85.7966 30.4181C85.7966 24.9949 83.8031 19.7889 80.1844 15.7593C78.9751 14.4129 79.0884 12.3391 80.4348 11.1344C81.7812 9.92508 83.855 10.0385 85.0597 11.3848C89.7601 16.6191 92.3489 23.3792 92.3489 30.4228C92.3489 46.1634 79.542 58.9751 63.7966 58.9751Z" fill="white"/>
<path d="M63.7966 33.6968C61.9873 33.6968 60.5181 32.1425 60.5181 30.2293V3.46746C60.5181 1.54949 61.9873 0 63.7966 0C65.6059 0 67.0751 1.55422 67.0751 3.46746V30.2293C67.0751 32.1473 65.6059 33.6968 63.7966 33.6968Z" fill="white"/>
<path d="M29.338 76.6C30.746 76.6 31.9267 76.952 32.88 77.656C33.848 78.3453 34.5667 79.2767 35.036 80.45C35.52 81.6087 35.762 82.892 35.762 84.3C35.762 85.752 35.52 87.0573 35.036 88.216C34.5667 89.3747 33.848 90.2987 32.88 90.988C31.9267 91.6627 30.746 92 29.338 92H23.728C23.5373 92 23.376 91.9413 23.244 91.824C23.1267 91.692 23.068 91.5307 23.068 91.34V77.26C23.068 77.0693 23.1267 76.9153 23.244 76.798C23.376 76.666 23.5373 76.6 23.728 76.6H29.338ZM29.118 90.702C30.878 90.702 32.1907 90.1153 33.056 88.942C33.9213 87.754 34.354 86.2067 34.354 84.3C34.354 83.112 34.1707 82.0413 33.804 81.088C33.4373 80.12 32.858 79.35 32.066 78.778C31.2887 78.1913 30.306 77.898 29.118 77.898H24.454V90.702H29.118ZM48.2264 85.73C48.2264 85.906 48.1604 86.06 48.0284 86.192C47.8964 86.3093 47.7424 86.368 47.5664 86.368H39.2504C39.2504 87.248 39.4264 88.04 39.7784 88.744C40.145 89.4333 40.6584 89.9833 41.3184 90.394C41.993 90.79 42.785 90.988 43.6944 90.988C44.3984 90.988 45.029 90.8413 45.5864 90.548C46.1437 90.2547 46.591 89.8807 46.9284 89.426C47.0897 89.294 47.2437 89.228 47.3904 89.228C47.537 89.228 47.669 89.2867 47.7864 89.404C47.9037 89.5213 47.9624 89.6533 47.9624 89.8C47.9624 89.9613 47.889 90.1153 47.7424 90.262C47.273 90.834 46.679 91.3033 45.9604 91.67C45.2564 92.0367 44.5084 92.22 43.7164 92.22C42.587 92.22 41.5897 91.978 40.7244 91.494C39.859 91.01 39.1844 90.3353 38.7004 89.47C38.2164 88.59 37.9744 87.578 37.9744 86.434C37.9744 85.2313 38.209 84.1827 38.6784 83.288C39.1624 82.3787 39.8004 81.6893 40.5924 81.22C41.3844 80.736 42.2277 80.494 43.1224 80.494C44.0024 80.494 44.8237 80.6993 45.5864 81.11C46.3637 81.5207 46.9944 82.122 47.4784 82.914C47.9624 83.706 48.2117 84.6447 48.2264 85.73ZM43.1224 81.77C42.2717 81.77 41.4797 82.0633 40.7464 82.65C40.0277 83.2367 39.5657 84.08 39.3604 85.18H46.8624V85.004C46.789 84.344 46.569 83.772 46.2024 83.288C45.8357 82.7893 45.3737 82.4153 44.8164 82.166C44.2737 81.902 43.709 81.77 43.1224 81.77ZM59.3316 80.538C59.4782 80.538 59.6176 80.5893 59.7496 80.692C59.8816 80.7947 59.9476 80.9267 59.9476 81.088C59.9476 81.22 59.9182 81.3447 59.8596 81.462L55.5476 91.582C55.4889 91.6993 55.4009 91.802 55.2836 91.89C55.1809 91.9633 55.0709 92 54.9536 92C54.8069 92.0147 54.6749 91.9853 54.5576 91.912C54.4402 91.8387 54.3522 91.7287 54.2936 91.582L49.9596 81.462C49.9596 81.4327 49.9449 81.3887 49.9156 81.33C49.9009 81.2713 49.8936 81.2127 49.8936 81.154C49.8936 80.978 49.9522 80.8313 50.0696 80.714C50.1869 80.582 50.3556 80.516 50.5756 80.516C50.7076 80.516 50.8249 80.56 50.9276 80.648C51.0449 80.7213 51.1329 80.824 51.1916 80.956L54.9316 89.866L58.6936 80.956C58.7522 80.824 58.8329 80.7213 58.9356 80.648C59.0529 80.56 59.1849 80.5233 59.3316 80.538ZM65.7798 82.034V89.404C65.7798 89.9613 65.8825 90.3427 66.0878 90.548C66.2931 90.7387 66.5645 90.834 66.9018 90.834C66.9898 90.834 67.0998 90.8193 67.2318 90.79C67.3638 90.746 67.4665 90.724 67.5398 90.724C67.6718 90.724 67.7818 90.7827 67.8698 90.9C67.9725 91.0027 68.0238 91.1273 68.0238 91.274C68.0238 91.4793 67.9065 91.6553 67.6718 91.802C67.4371 91.934 67.1585 92 66.8358 92C66.4398 92 66.0878 91.9633 65.7798 91.89C65.4718 91.8167 65.1711 91.5967 64.8778 91.23C64.5991 90.8633 64.4598 90.2767 64.4598 89.47V82.034H62.8538C62.6778 82.034 62.5238 81.9753 62.3918 81.858C62.2745 81.7407 62.2158 81.594 62.2158 81.418C62.2158 81.242 62.2745 81.0953 62.3918 80.978C62.5238 80.8607 62.6778 80.802 62.8538 80.802H64.4598V78.36C64.4598 78.1693 64.5185 78.0153 64.6358 77.898C64.7678 77.766 64.9291 77.7 65.1198 77.7C65.3105 77.7 65.4645 77.766 65.5818 77.898C65.7138 78.0153 65.7798 78.1693 65.7798 78.36V80.802H67.9798C68.1411 80.802 68.2805 80.868 68.3978 81C68.5298 81.132 68.5958 81.2787 68.5958 81.44C68.5958 81.616 68.5371 81.7627 68.4198 81.88C68.3025 81.9827 68.1558 82.034 67.9798 82.034H65.7798ZM80.4315 85.73C80.4315 85.906 80.3655 86.06 80.2335 86.192C80.1015 86.3093 79.9475 86.368 79.7715 86.368H71.4555C71.4555 87.248 71.6315 88.04 71.9835 88.744C72.3501 89.4333 72.8635 89.9833 73.5235 90.394C74.1981 90.79 74.9901 90.988 75.8995 90.988C76.6035 90.988 77.2341 90.8413 77.7915 90.548C78.3488 90.2547 78.7961 89.8807 79.1335 89.426C79.2948 89.294 79.4488 89.228 79.5955 89.228C79.7421 89.228 79.8741 89.2867 79.9915 89.404C80.1088 89.5213 80.1675 89.6533 80.1675 89.8C80.1675 89.9613 80.0941 90.1153 79.9475 90.262C79.4781 90.834 78.8841 91.3033 78.1655 91.67C77.4615 92.0367 76.7135 92.22 75.9215 92.22C74.7921 92.22 73.7948 91.978 72.9295 91.494C72.0641 91.01 71.3895 90.3353 70.9055 89.47C70.4215 88.59 70.1795 87.578 70.1795 86.434C70.1795 85.2313 70.4141 84.1827 70.8835 83.288C71.3675 82.3787 72.0055 81.6893 72.7975 81.22C73.5895 80.736 74.4328 80.494 75.3275 80.494C76.2075 80.494 77.0288 80.6993 77.7915 81.11C78.5688 81.5207 79.1995 82.122 79.6835 82.914C80.1675 83.706 80.4168 84.6447 80.4315 85.73ZM75.3275 81.77C74.4768 81.77 73.6848 82.0633 72.9515 82.65C72.2328 83.2367 71.7708 84.08 71.5655 85.18H79.0675V85.004C78.9941 84.344 78.7741 83.772 78.4075 83.288C78.0408 82.7893 77.5788 82.4153 77.0215 82.166C76.4788 81.902 75.9141 81.77 75.3275 81.77ZM88.0141 80.494C88.7034 80.494 89.3414 80.5747 89.9281 80.736C90.5294 80.8827 91.0061 81.088 91.3581 81.352C91.7247 81.616 91.9081 81.902 91.9081 82.21C91.9081 82.3713 91.8494 82.518 91.7321 82.65C91.6294 82.782 91.4974 82.848 91.3361 82.848C91.1894 82.848 91.0647 82.8187 90.9621 82.76C90.8741 82.7013 90.7714 82.6133 90.6541 82.496C90.4634 82.3053 90.2801 82.166 90.1041 82.078C89.8841 81.9753 89.5907 81.8947 89.2241 81.836C88.8721 81.7627 88.4907 81.726 88.0801 81.726C87.2734 81.726 86.5327 81.9313 85.8581 82.342C85.1981 82.7527 84.6774 83.31 84.2961 84.014C83.9147 84.718 83.7241 85.4953 83.7241 86.346C83.7241 87.226 83.9074 88.018 84.2741 88.722C84.6407 89.426 85.1467 89.9833 85.7921 90.394C86.4521 90.79 87.2001 90.988 88.0361 90.988C88.5641 90.988 88.9821 90.944 89.2901 90.856C89.6127 90.768 89.9281 90.6433 90.2361 90.482C90.3387 90.4233 90.5147 90.2913 90.7641 90.086C90.8814 89.9833 90.9841 89.91 91.0721 89.866C91.1601 89.8073 91.2554 89.778 91.3581 89.778C91.5341 89.778 91.6734 89.8367 91.7761 89.954C91.8787 90.0567 91.9301 90.196 91.9301 90.372C91.9301 90.6213 91.7541 90.8927 91.4021 91.186C91.0501 91.4647 90.5661 91.7067 89.9501 91.912C89.3341 92.1173 88.6521 92.22 87.9041 92.22C86.8334 92.22 85.8801 91.9707 85.0441 91.472C84.2081 90.9587 83.5554 90.2547 83.0861 89.36C82.6314 88.4653 82.4041 87.4607 82.4041 86.346C82.4041 85.2753 82.6387 84.3 83.1081 83.42C83.5774 82.5253 84.2374 81.814 85.0881 81.286C85.9387 80.758 86.9141 80.494 88.0141 80.494ZM99.5788 80.67C100.899 80.67 101.882 81.088 102.527 81.924C103.172 82.7453 103.495 83.8087 103.495 85.114V91.34C103.495 91.5307 103.429 91.692 103.297 91.824C103.18 91.9413 103.026 92 102.835 92C102.644 92 102.483 91.9413 102.351 91.824C102.234 91.692 102.175 91.5307 102.175 91.34V85.114C102.175 84.1607 101.948 83.3907 101.493 82.804C101.038 82.2027 100.327 81.902 99.3588 81.902C98.7428 81.902 98.1562 82.0487 97.5988 82.342C97.0562 82.6353 96.6162 83.0313 96.2788 83.53C95.9415 84.014 95.7728 84.542 95.7728 85.114V91.34C95.7728 91.5307 95.7068 91.692 95.5748 91.824C95.4575 91.9413 95.3035 92 95.1128 92C94.9222 92 94.7608 91.9413 94.6288 91.824C94.5115 91.692 94.4528 91.5307 94.4528 91.34V76.38C94.4528 76.1893 94.5115 76.0353 94.6288 75.918C94.7608 75.786 94.9222 75.72 95.1128 75.72C95.3035 75.72 95.4575 75.786 95.5748 75.918C95.7068 76.0353 95.7728 76.1893 95.7728 76.38V82.826C96.1688 82.1953 96.7188 81.682 97.4228 81.286C98.1268 80.8753 98.8455 80.67 99.5788 80.67Z" fill="white"/>
</svg>
