<svg width="248" height="31" viewBox="0 0 248 31" fill="none" xmlns="http://www.w3.org/2000/svg">
<path d="M154.641 1.10271C155.069 1.47166 155.282 1.9664 155.282 2.58691C155.282 3.20741 155.069 3.69376 154.641 4.04874C154.213 4.40371 153.668 4.5798 153.003 4.5798H144.554V28.3297C144.554 28.9222 144.324 29.4225 143.866 29.8362C143.408 30.2499 142.83 30.4567 142.132 30.4567C141.435 30.4567 140.857 30.2499 140.399 29.8362C139.941 29.4225 139.71 28.9222 139.71 28.3297V4.5798H131.309C130.645 4.5798 130.1 4.39533 129.672 4.02638C129.244 3.65742 129.031 3.16269 129.031 2.54218C129.031 1.92167 129.244 1.47166 129.672 1.10271C130.1 0.733762 130.645 0.549286 131.309 0.549286H152.997C153.662 0.549286 154.207 0.733762 154.635 1.10271H154.641Z" fill="white"/>
<path d="M180.206 26.9993C180.634 27.413 180.847 27.9021 180.847 28.4611C180.847 29.0537 180.634 29.5316 180.206 29.9006C179.778 30.2695 179.233 30.454 178.568 30.454H162.051C161.416 30.454 160.88 30.2472 160.437 29.8335C159.994 29.4198 159.772 28.9195 159.772 28.327V2.67363C159.772 2.08387 159.994 1.58075 160.437 1.16708C160.88 0.753406 161.416 0.54657 162.051 0.54657H178.568C179.233 0.54657 179.778 0.739431 180.206 1.12236C180.634 1.50528 180.847 2.0084 180.847 2.62891C180.847 3.24942 180.634 3.69943 180.206 4.06838C179.778 4.43733 179.233 4.62181 178.568 4.62181H164.473V13.6611H176.434C177.098 13.6611 177.643 13.854 178.071 14.2369C178.499 14.6198 178.712 15.109 178.712 15.6987C178.712 16.3193 178.499 16.8056 178.071 17.1606C177.643 17.5155 177.098 17.6916 176.434 17.6916H164.473V26.376H178.568C179.233 26.376 179.778 26.5828 180.206 26.9965V26.9993Z" fill="white"/>
<path d="M246.836 1.14472C247.279 1.54442 247.5 2.05312 247.5 2.67363V28.285C247.467 28.9055 247.231 29.4226 246.788 29.8363C246.345 30.25 245.776 30.4568 245.078 30.4568C244.443 30.4568 243.899 30.25 243.44 29.8363C242.982 29.4226 242.752 28.9055 242.752 28.285V17.918H225.501V28.285C225.501 28.9055 225.264 29.4226 224.788 29.8363C224.312 30.25 223.759 30.4568 223.127 30.4568C222.432 30.4568 221.869 30.25 221.441 29.8363C221.013 29.4226 220.801 28.9055 220.801 28.285V2.67363C220.801 2.08387 221.022 1.58075 221.465 1.16708C221.908 0.753406 222.477 0.54657 223.175 0.54657C223.806 0.54657 224.354 0.753406 224.812 1.16708C225.27 1.58075 225.501 2.08387 225.501 2.67363V13.84H242.752V2.67363C242.752 2.08387 242.988 1.58075 243.464 1.16708C243.937 0.753406 244.491 0.54657 245.126 0.54657C245.821 0.54657 246.392 0.745021 246.836 1.14472Z" fill="white"/>
<path d="M200.824 30.4568C192.286 30.4568 185.337 23.9719 185.337 15.9991C185.337 12.4349 186.742 9.00942 189.291 6.359C189.947 5.67726 191.069 5.61985 191.799 6.23222C192.53 6.84459 192.591 7.89232 191.935 8.57407C189.972 10.6145 188.891 13.253 188.891 15.9967C188.891 22.1395 194.244 27.1366 200.824 27.1366C207.403 27.1366 212.756 22.1395 212.756 15.9967C212.756 13.2506 211.675 10.6145 209.712 8.57407C209.056 7.89232 209.117 6.8422 209.848 6.23222C210.578 5.61985 211.703 5.67726 212.356 6.359C214.906 9.00942 216.31 12.4325 216.31 15.9991C216.31 23.9695 209.363 30.4568 200.824 30.4568Z" fill="white"/>
<path d="M200.824 17.6566C199.842 17.6566 199.045 16.8696 199.045 15.9009V2.34972C199.045 1.37854 199.842 0.593933 200.824 0.593933C201.805 0.593933 202.602 1.38093 202.602 2.34972V15.9009C202.602 16.872 201.805 17.6566 200.824 17.6566Z" fill="white"/>
<path d="M41.1292 2.57023C43.2489 3.90907 44.8476 5.70911 45.9224 7.97313C46.9972 10.2372 47.5361 12.7499 47.5361 15.5115C47.5361 18.273 46.9972 20.8277 45.9224 23.0918C44.8476 25.3558 43.2489 27.1474 41.1292 28.4723C39.0095 29.7972 36.4617 30.4568 33.4888 30.4568H23.2586C22.6239 30.4568 22.088 30.2584 21.6449 29.8587C21.2018 29.4618 20.9802 28.9754 20.9802 28.408V2.61215C20.9802 2.04196 21.2018 1.55841 21.6449 1.1615C22.088 0.761806 22.6269 0.563354 23.2586 0.563354H33.4888C36.4617 0.563354 39.0095 1.23138 41.1292 2.57023ZM40.2759 23.4328C41.8896 21.37 42.695 18.7286 42.695 15.5115C42.695 12.2943 41.8807 9.68932 40.252 7.61257C38.6233 5.53582 36.2102 4.49604 33.0157 4.49604H25.6807V26.5269H33.0157C36.2431 26.5269 38.6622 25.4955 40.2759 23.43V23.4328Z" fill="white"/>
<path d="M71.2478 26.9993C71.676 27.413 71.8885 27.9021 71.8885 28.4611C71.8885 29.0537 71.676 29.5316 71.2478 29.9006C70.8197 30.2696 70.2748 30.454 69.6102 30.454H52.8084C52.1737 30.454 51.6378 30.2472 51.1947 29.8335C50.7516 29.4198 50.53 28.9195 50.53 28.327V2.69042C50.53 2.10065 50.7516 1.59754 51.1947 1.18386C51.6378 0.770191 52.1767 0.563354 52.8084 0.563354H69.6102C70.2748 0.563354 70.8197 0.756216 71.2478 1.13914C71.676 1.52207 71.8885 2.02519 71.8885 2.6457C71.8885 3.2662 71.676 3.71621 71.2478 4.08517C70.8197 4.45412 70.2748 4.63859 69.6102 4.63859H55.2305V13.6779H67.1911C67.8557 13.6779 68.4006 13.8708 68.8288 14.2537C69.2569 14.6366 69.4695 15.1258 69.4695 15.7155C69.4695 16.336 69.2569 16.8224 68.8288 17.1774C68.4006 17.5323 67.8557 17.7084 67.1911 17.7084H55.2305V26.3788H69.6102C70.2748 26.3788 70.8197 26.5856 71.2478 26.9993Z" fill="white"/>
<path d="M103.091 1.13913C103.549 1.52205 103.78 1.99722 103.78 2.55624C103.78 2.85251 103.699 3.17674 103.543 3.53172L91.4418 29.0816C91.2203 29.5232 90.9029 29.8642 90.4928 30.1018C90.0826 30.3394 89.6545 30.4568 89.2114 30.4568C88.8012 30.4289 88.412 30.3031 88.0498 30.0795C87.6845 29.8587 87.3941 29.54 87.1725 29.1263L75.0712 3.53172C74.9454 3.29693 74.8826 2.98668 74.8826 2.60096C74.8826 1.98045 75.1191 1.47733 75.5951 1.0944C76.0711 0.711477 76.5921 0.518616 77.1609 0.518616C78.11 0.518616 78.8046 0.990986 79.2477 1.93573L89.5946 23.5865L99.3697 1.891C99.5913 1.47733 99.8847 1.1531 100.247 0.915518C100.612 0.680731 101.013 0.560542 101.456 0.560542C102.088 0.560542 102.636 0.753403 103.094 1.13633L103.091 1.13913Z" fill="white"/>
<path d="M16.1608 30.4568C15.6908 30.4568 15.2207 30.2891 14.8614 29.9537L0.67633 16.7105C0.30808 16.3667 0.053598 15.9223 0.00868942 15.4416C-0.0481947 14.8462 0.176348 14.276 0.619446 13.8623L14.8076 0.613617C15.5171 -0.0488186 16.6877 -0.118696 17.4182 0.52697C18.1488 1.17264 18.1877 2.30744 17.4602 2.98944L4.52649 15.0614C4.40973 15.1704 4.40973 15.3465 4.52649 15.4555L17.4033 27.4772C18.1398 28.1648 18.1757 29.3248 17.4182 29.99C17.065 30.3002 16.6129 30.4568 16.1608 30.4568Z" fill="white"/>
<path d="M108.599 0.0770139C109.069 0.0770139 109.539 0.244719 109.899 0.58013L124.084 13.8233C124.452 14.1671 124.706 14.6115 124.751 15.0922C124.808 15.6876 124.584 16.2578 124.141 16.6714L109.953 29.9174C109.243 30.5798 108.072 30.6497 107.342 30.004C106.611 29.3584 106.572 28.2236 107.3 27.5415L120.231 15.4696C120.347 15.3606 120.347 15.1845 120.231 15.0755L107.354 3.05378C106.617 2.36619 106.581 1.20623 107.339 0.540998C107.692 0.230744 108.144 0.0742188 108.596 0.0742188L108.599 0.0770139Z" fill="white"/>
</svg>
