      <svg width="586" height="63" viewBox="0 0 586 63" fill="none" xmlns="http://www.w3.org/2000/svg">
        <path d="M202.526 9.96335C203.157 10.5941 203.55 11.4716 203.55 12.4314L203.55 50.5757C203.55 51.5629 203.258 52.5501 202.617 53.2996C201.84 54.232 200.714 54.753 199.516 54.753L161.331 54.753C159.419 54.753 157.745 53.2813 157.69 51.3709C157.635 49.4605 159.217 47.7694 161.184 47.7694L195.985 47.7694C196.296 47.7694 196.552 47.5135 196.552 47.2027L196.552 12.5776C196.552 10.6032 198.171 8.87561 200.156 8.93959C201.08 8.96701 201.913 9.35092 202.517 9.96335L202.526 9.96335Z" fill="#6E9FFF"/>
        <path d="M149.822 44.7896C149.191 44.1589 148.797 43.2814 148.797 42.3216L148.797 4.17732C148.797 3.19012 149.09 2.20292 149.73 1.45338C150.508 0.521022 151.633 1.57784e-07 152.832 2.2446e-07L191.017 2.34895e-06C192.929 2.45533e-06 194.603 1.47166 194.658 3.38208C194.713 5.29249 193.13 6.98353 191.163 6.98353L156.363 6.98352C156.052 6.98352 155.796 7.23946 155.796 7.55025L155.796 42.1754C155.796 44.1498 154.177 45.8774 152.191 45.8134C151.267 45.786 150.435 45.402 149.831 44.7896L149.822 44.7896Z" fill="#6E9FFF"/>
        <path d="M54.0431 9.96335C54.6744 10.5941 55.0677 11.4716 55.0677 12.4314L55.0677 50.5757C55.0677 51.5629 54.775 52.5501 54.1346 53.2996C53.357 54.232 52.2317 54.753 51.0333 54.753L12.848 54.753C10.936 54.753 9.26184 53.2813 9.20695 51.3709C9.15206 49.4605 10.7347 47.7694 12.7016 47.7694L47.502 47.7694C47.8131 47.7694 48.0692 47.5135 48.0692 47.2027L48.0692 12.5776C48.0692 10.6032 49.6885 8.87561 51.6737 8.93959C52.5977 8.96701 53.4302 9.35092 54.034 9.96335L54.0431 9.96335Z" fill="#6E9FFF"/>
        <path d="M1.33931 44.7896C0.70807 44.1589 0.314695 43.2814 0.314695 42.3216L0.314697 4.17732C0.314697 3.19012 0.607435 2.20292 1.24782 1.45338C2.02543 0.521022 3.15068 1.57784e-07 4.34912 2.2446e-07L42.5344 2.34895e-06C44.4464 2.45533e-06 46.1206 1.47166 46.1755 3.38208C46.2304 5.29249 44.6477 6.98353 42.6808 6.98353L7.88039 6.98352C7.56935 6.98352 7.3132 7.23946 7.3132 7.55025L7.31319 42.1754C7.31319 44.1498 5.69393 45.8774 3.70873 45.8134C2.78475 45.786 1.95224 45.402 1.34845 44.7896L1.33931 44.7896Z" fill="#6E9FFF"/>
        <path d="M256.816 0.00341816C257.715 0.00341821 258.624 0.343297 259.32 1.03224L286.693 28.1399C287.398 28.838 287.899 29.7474 287.983 30.7395C288.094 31.9613 287.658 33.1187 286.805 33.973L259.431 61.0806C258.059 62.4401 255.805 62.5779 254.395 61.2552C252.985 59.9324 252.91 57.6175 254.32 56.2213L279.273 31.5111C279.495 31.2907 279.495 30.9232 279.273 30.7028L254.432 6.10287C253.012 4.69743 252.938 2.32746 254.404 0.958754C255.062 0.324925 255.944 0.00341812 256.816 0.00341816Z" fill="#222222"/>
        <path d="M244.015 62.1737C243.106 62.1737 242.197 61.8339 241.51 61.1449L214.137 34.0373C213.432 33.3391 212.931 32.4297 212.848 31.4376C212.736 30.2159 213.172 29.0585 214.026 28.2042L241.408 1.09653C242.781 -0.262987 245.035 -0.400775 246.445 0.921998C247.855 2.24477 247.929 4.55962 246.519 5.95588L221.567 30.666C221.344 30.8865 221.344 31.2539 221.567 31.4744L246.408 56.0743C247.827 57.4797 247.901 59.8497 246.436 61.2184C245.759 61.8522 244.878 62.1737 244.006 62.1737L244.015 62.1737Z" fill="#222222"/>
        <path d="M108.333 0.00341816C109.233 0.00341821 110.142 0.343297 110.837 1.03224L138.211 28.1399C138.916 28.838 139.417 29.7474 139.5 30.7395C139.611 31.9613 139.175 33.1187 138.322 33.973L110.949 61.0806C109.576 62.4401 107.322 62.5779 105.912 61.2552C104.502 59.9324 104.428 57.6175 105.838 56.2213L130.79 31.5111C131.013 31.2907 131.013 30.9232 130.79 30.7028L105.949 6.10287C104.53 4.69743 104.456 2.32746 105.921 0.958754C106.58 0.324925 107.461 0.00341812 108.333 0.00341816Z" fill="#222222"/>
        <path d="M95.5322 62.1737C94.6231 62.1737 93.7141 61.8339 93.0277 61.1449L65.6544 34.0373C64.9494 33.3391 64.4485 32.4297 64.365 31.4376C64.2537 30.2159 64.6897 29.0585 65.5431 28.2042L92.9257 1.09653C94.2985 -0.262987 96.5525 -0.400775 97.9625 0.921998C99.3724 2.24477 99.4467 4.55962 98.0367 5.95588L73.0844 30.666C72.8618 30.8865 72.8618 31.2539 73.0844 31.4744L97.9254 56.0743C99.3446 57.4797 99.4188 59.8497 97.9532 61.2184C97.2761 61.8522 96.3949 62.1737 95.5229 62.1737L95.5322 62.1737Z" fill="#222222"/>
        <path d="M500.526 9.96335C501.157 10.5941 501.55 11.4716 501.55 12.4314L501.55 50.5757C501.55 51.5629 501.258 52.5501 500.617 53.2996C499.84 54.232 498.714 54.753 497.516 54.753L459.331 54.753C457.419 54.753 455.745 53.2813 455.69 51.3709C455.635 49.4605 457.217 47.7694 459.184 47.7694L493.985 47.7694C494.296 47.7694 494.552 47.5135 494.552 47.2027L494.552 12.5776C494.552 10.6032 496.171 8.87561 498.156 8.93959C499.08 8.96701 499.913 9.35092 500.517 9.96335L500.526 9.96335Z" fill="#6E9FFF"/>
        <path d="M447.822 44.7896C447.191 44.1589 446.797 43.2814 446.797 42.3216L446.797 4.17732C446.797 3.19012 447.09 2.20292 447.73 1.45338C448.508 0.521022 449.633 1.57784e-07 450.832 2.2446e-07L489.017 2.34895e-06C490.929 2.45533e-06 492.603 1.47166 492.658 3.38208C492.713 5.29249 491.13 6.98353 489.163 6.98353L454.363 6.98352C454.052 6.98352 453.796 7.23946 453.796 7.55025L453.796 42.1754C453.796 44.1498 452.177 45.8774 450.191 45.8134C449.267 45.786 448.435 45.402 447.831 44.7896L447.822 44.7896Z" fill="#6E9FFF"/>
        <path d="M352.043 9.96335C352.674 10.5941 353.068 11.4716 353.068 12.4314L353.068 50.5757C353.068 51.5629 352.775 52.5501 352.135 53.2996C351.357 54.232 350.232 54.753 349.033 54.753L310.848 54.753C308.936 54.753 307.262 53.2813 307.207 51.3709C307.152 49.4605 308.735 47.7694 310.702 47.7694L345.502 47.7694C345.813 47.7694 346.069 47.5135 346.069 47.2027L346.069 12.5776C346.069 10.6032 347.688 8.87561 349.674 8.93959C350.598 8.96701 351.43 9.35092 352.034 9.96335L352.043 9.96335Z" fill="#6E9FFF"/>
        <path d="M299.339 44.7896C298.708 44.1589 298.315 43.2814 298.315 42.3216L298.315 4.17732C298.315 3.19012 298.607 2.20292 299.248 1.45338C300.025 0.521022 301.151 1.57784e-07 302.349 2.2446e-07L340.534 2.34895e-06C342.446 2.45533e-06 344.121 1.47166 344.175 3.38208C344.23 5.29249 342.648 6.98353 340.681 6.98353L305.88 6.98352C305.569 6.98352 305.313 7.23946 305.313 7.55025L305.313 42.1754C305.313 44.1498 303.694 45.8774 301.709 45.8134C300.785 45.786 299.952 45.402 299.348 44.7896L299.339 44.7896Z" fill="#6E9FFF"/>
        <path d="M554.816 0.00341816C555.715 0.00341821 556.624 0.343297 557.32 1.03224L584.693 28.1399C585.398 28.838 585.899 29.7474 585.983 30.7395C586.094 31.9613 585.658 33.1187 584.805 33.973L557.431 61.0806C556.059 62.4401 553.805 62.5779 552.395 61.2552C550.985 59.9324 550.91 57.6175 552.32 56.2213L577.273 31.5111C577.495 31.2907 577.495 30.9232 577.273 30.7028L552.432 6.10287C551.012 4.69743 550.938 2.32746 552.404 0.958754C553.062 0.324925 553.944 0.00341812 554.816 0.00341816Z" fill="#222222"/>
        <path d="M542.015 62.1737C541.106 62.1737 540.197 61.8339 539.51 61.1449L512.137 34.0373C511.432 33.3391 510.931 32.4297 510.848 31.4376C510.736 30.2159 511.172 29.0585 512.026 28.2042L539.408 1.09653C540.781 -0.262987 543.035 -0.400775 544.445 0.921998C545.855 2.24477 545.929 4.55962 544.519 5.95588L519.567 30.666C519.344 30.8865 519.344 31.2539 519.567 31.4744L544.408 56.0743C545.827 57.4797 545.901 59.8497 544.436 61.2184C543.759 61.8522 542.878 62.1737 542.006 62.1737L542.015 62.1737Z" fill="#222222"/>
        <path d="M406.333 0.00341816C407.233 0.00341821 408.142 0.343297 408.837 1.03224L436.211 28.1399C436.916 28.838 437.417 29.7474 437.5 30.7395C437.611 31.9613 437.175 33.1187 436.322 33.973L408.949 61.0806C407.576 62.4401 405.322 62.5779 403.912 61.2552C402.502 59.9324 402.428 57.6175 403.838 56.2213L428.79 31.5111C429.013 31.2907 429.013 30.9232 428.79 30.7028L403.949 6.10287C402.53 4.69743 402.456 2.32746 403.921 0.958754C404.58 0.324925 405.461 0.00341812 406.333 0.00341816Z" fill="#222222"/>
        <path d="M393.532 62.1737C392.623 62.1737 391.714 61.8339 391.028 61.1449L363.654 34.0373C362.949 33.3391 362.449 32.4297 362.365 31.4376C362.254 30.2159 362.69 29.0585 363.543 28.2042L390.926 1.09653C392.298 -0.262987 394.553 -0.400775 395.962 0.921998C397.372 2.24477 397.447 4.55962 396.037 5.95588L371.084 30.666C370.862 30.8865 370.862 31.2539 371.084 31.4744L395.925 56.0743C397.345 57.4797 397.419 59.8497 395.953 61.2184C395.276 61.8522 394.395 62.1737 393.523 62.1737L393.532 62.1737Z" fill="#222222"/>
        </svg>