<svg width="586" height="65" viewBox="0 0 586 65" fill="none" xmlns="http://www.w3.org/2000/svg">
<path d="M202.212 10.3788C202.843 11.0358 203.236 11.9499 203.236 12.9497L203.236 52.6843C203.236 53.7126 202.943 54.741 202.303 55.5218C201.525 56.493 200.4 57.0358 199.202 57.0358L161.016 57.0358C159.104 57.0358 157.43 55.5027 157.375 53.5127C157.321 51.5226 158.903 49.7611 160.87 49.7611L195.67 49.7611C195.982 49.7611 196.238 49.4945 196.238 49.1707L196.238 13.102C196.238 11.0453 197.857 9.24569 199.842 9.31234C200.766 9.34091 201.599 9.74083 202.202 10.3788L202.212 10.3788Z" fill="white"/>
<path d="M149.508 46.657C148.876 46 148.483 45.0859 148.483 44.0861L148.483 4.35148C148.483 3.32312 148.776 2.29476 149.416 1.51397C150.194 0.542744 151.319 1.64362e-07 152.517 2.33818e-07L190.703 2.44688e-06C192.615 2.55769e-06 194.289 1.53302 194.344 3.52308C194.399 5.51314 192.816 7.27468 190.849 7.27468L156.049 7.27468C155.738 7.27468 155.481 7.54129 155.481 7.86503L155.481 43.9337C155.481 45.9904 153.862 47.7901 151.877 47.7234C150.953 47.6948 150.12 47.2949 149.517 46.657L149.508 46.657Z" fill="white"/>
<path d="M53.7287 10.3788C54.3599 11.0358 54.7533 11.9499 54.7533 12.9497L54.7533 52.6843C54.7533 53.7126 54.4605 54.741 53.8202 55.5218C53.0425 56.493 51.9173 57.0358 50.7189 57.0358L12.5335 57.0358C10.6215 57.0358 8.94739 55.5027 8.8925 53.5127C8.83761 51.5226 10.4203 49.7611 12.3872 49.7611L47.1876 49.7611C47.4986 49.7611 47.7548 49.4945 47.7548 49.1707L47.7548 13.102C47.7548 11.0453 49.374 9.24569 51.3592 9.31234C52.2832 9.34091 53.1157 9.74083 53.7195 10.3788L53.7287 10.3788Z" fill="white"/>
<path d="M1.02461 46.657C0.393373 46 -2.40802e-06 45.0859 -2.35462e-06 44.0861L-2.3241e-07 4.35148C-1.77486e-07 3.32312 0.292738 2.29476 0.933124 1.51397C1.71074 0.542744 2.83598 1.64362e-07 4.03442 2.33818e-07L42.2197 2.44688e-06C44.1317 2.55769e-06 45.8059 1.53302 45.8608 3.52308C45.9157 5.51314 44.333 7.27468 42.3661 7.27468L7.56569 7.27468C7.25465 7.27468 6.9985 7.54129 6.9985 7.86503L6.9985 43.9337C6.9985 45.9904 5.37923 47.7901 3.39404 47.7234C2.47005 47.6948 1.63755 47.2949 1.03375 46.657L1.02461 46.657Z" fill="white"/>
<path d="M256.501 0.00341817C257.401 0.00341822 258.31 0.357468 259.006 1.07514L286.379 29.313C287.084 30.0402 287.585 30.9875 287.668 32.021C287.78 33.2936 287.344 34.4993 286.49 35.3892L259.117 63.627C257.744 65.0432 255.49 65.1868 254.08 63.8088C252.67 62.4309 252.596 60.0196 254.006 58.5651L278.958 32.8248C279.181 32.5951 279.181 32.2123 278.958 31.9827L254.117 6.35717C252.698 4.89313 252.624 2.42435 254.089 0.998584C254.748 0.33833 255.629 0.00341812 256.501 0.00341817Z" fill="white"/>
<path d="M243.7 64.7659C242.791 64.7659 241.882 64.4118 241.196 63.6942L213.823 35.4563C213.118 34.7291 212.617 33.7818 212.533 32.7483C212.422 31.4757 212.858 30.27 213.711 29.3801L241.094 1.14225C242.467 -0.273951 244.721 -0.417484 246.131 0.960437C247.541 2.33836 247.615 4.74972 246.205 6.2042L221.253 31.9445C221.03 32.1742 221.03 32.5569 221.253 32.7866L246.094 58.4121C247.513 59.8762 247.587 62.3449 246.121 63.7707C245.444 64.431 244.563 64.7659 243.691 64.7659L243.7 64.7659Z" fill="white"/>
<path d="M108.018 0.00341817C108.918 0.00341822 109.827 0.357468 110.523 1.07514L137.896 29.313C138.601 30.0402 139.102 30.9875 139.185 32.021C139.297 33.2936 138.861 34.4993 138.007 35.3892L110.634 63.627C109.261 65.0432 107.007 65.1868 105.597 63.8088C104.187 62.4309 104.113 60.0196 105.523 58.5651L130.475 32.8248C130.698 32.5951 130.698 32.2123 130.475 31.9827L105.634 6.35717C104.215 4.89313 104.141 2.42435 105.607 0.998584C106.265 0.33833 107.146 0.00341812 108.018 0.00341817Z" fill="white"/>
<path d="M95.2175 64.7659C94.3084 64.7659 93.3994 64.4118 92.713 63.6942L65.3397 35.4563C64.6347 34.7291 64.1338 33.7818 64.0503 32.7483C63.939 31.4757 64.375 30.27 65.2284 29.3801L92.611 1.14225C93.9838 -0.273951 96.2378 -0.417484 97.6478 0.960437C99.0577 2.33836 99.132 4.74972 97.722 6.2042L72.7697 31.9445C72.5471 32.1742 72.5471 32.5569 72.7697 32.7866L97.6107 58.4121C99.0299 59.8762 99.1041 62.3449 97.6385 63.7707C96.9614 64.431 96.0802 64.7659 95.2082 64.7659L95.2175 64.7659Z" fill="white"/>
<path d="M500.212 10.3788C500.843 11.0358 501.236 11.9499 501.236 12.9497L501.236 52.6843C501.236 53.7126 500.943 54.741 500.303 55.5218C499.525 56.493 498.4 57.0358 497.202 57.0358L459.016 57.0358C457.104 57.0358 455.43 55.5027 455.375 53.5127C455.321 51.5226 456.903 49.7611 458.87 49.7611L493.67 49.7611C493.982 49.7611 494.238 49.4945 494.238 49.1707L494.238 13.102C494.238 11.0453 495.857 9.24569 497.842 9.31234C498.766 9.34091 499.599 9.74083 500.202 10.3788L500.212 10.3788Z" fill="white"/>
<path d="M447.508 46.657C446.876 46 446.483 45.0859 446.483 44.0861L446.483 4.35148C446.483 3.32312 446.776 2.29476 447.416 1.51397C448.194 0.542744 449.319 1.64362e-07 450.517 2.33818e-07L488.703 2.44688e-06C490.615 2.55769e-06 492.289 1.53302 492.344 3.52308C492.399 5.51314 490.816 7.27468 488.849 7.27468L454.049 7.27468C453.738 7.27468 453.481 7.54129 453.481 7.86503L453.481 43.9337C453.481 45.9904 451.862 47.7901 449.877 47.7234C448.953 47.6948 448.12 47.2949 447.517 46.657L447.508 46.657Z" fill="white"/>
<path d="M351.729 10.3788C352.36 11.0358 352.753 11.9499 352.753 12.9497L352.753 52.6843C352.753 53.7126 352.461 54.741 351.82 55.5218C351.043 56.493 349.917 57.0358 348.719 57.0358L310.534 57.0358C308.622 57.0358 306.947 55.5027 306.892 53.5127C306.838 51.5226 308.42 49.7611 310.387 49.7611L345.188 49.7611C345.499 49.7611 345.755 49.4945 345.755 49.1707L345.755 13.102C345.755 11.0453 347.374 9.24569 349.359 9.31234C350.283 9.34091 351.116 9.74083 351.72 10.3788L351.729 10.3788Z" fill="white"/>
<path d="M299.025 46.657C298.393 46 298 45.0859 298 44.0861L298 4.35148C298 3.32312 298.293 2.29476 298.933 1.51397C299.711 0.542744 300.836 1.64362e-07 302.034 2.33818e-07L340.22 2.44688e-06C342.132 2.55769e-06 343.806 1.53302 343.861 3.52308C343.916 5.51314 342.333 7.27468 340.366 7.27468L305.566 7.27468C305.255 7.27468 304.998 7.54129 304.998 7.86503L304.998 43.9337C304.998 45.9904 303.379 47.7901 301.394 47.7234C300.47 47.6948 299.638 47.2949 299.034 46.657L299.025 46.657Z" fill="white"/>
<path d="M554.501 0.00341817C555.401 0.00341822 556.31 0.357468 557.006 1.07514L584.379 29.313C585.084 30.0402 585.585 30.9875 585.668 32.021C585.78 33.2936 585.344 34.4993 584.49 35.3892L557.117 63.627C555.744 65.0432 553.49 65.1868 552.08 63.8088C550.67 62.4309 550.596 60.0196 552.006 58.5651L576.958 32.8248C577.181 32.5951 577.181 32.2123 576.958 31.9827L552.117 6.35717C550.698 4.89313 550.624 2.42435 552.089 0.998584C552.748 0.33833 553.629 0.00341812 554.501 0.00341817Z" fill="white"/>
<path d="M541.7 64.7659C540.791 64.7659 539.882 64.4118 539.196 63.6942L511.823 35.4563C511.118 34.7291 510.617 33.7818 510.533 32.7483C510.422 31.4757 510.858 30.27 511.711 29.3801L539.094 1.14225C540.467 -0.273951 542.721 -0.417484 544.131 0.960437C545.541 2.33836 545.615 4.74972 544.205 6.2042L519.253 31.9445C519.03 32.1742 519.03 32.5569 519.253 32.7866L544.094 58.4121C545.513 59.8762 545.587 62.3449 544.121 63.7707C543.444 64.431 542.563 64.7659 541.691 64.7659L541.7 64.7659Z" fill="white"/>
<path d="M406.018 0.00341817C406.918 0.00341822 407.827 0.357468 408.523 1.07514L435.896 29.313C436.601 30.0402 437.102 30.9875 437.185 32.021C437.297 33.2936 436.861 34.4993 436.007 35.3892L408.634 63.627C407.261 65.0432 405.007 65.1868 403.597 63.8088C402.187 62.4309 402.113 60.0196 403.523 58.5651L428.475 32.8248C428.698 32.5951 428.698 32.2123 428.475 31.9827L403.634 6.35717C402.215 4.89313 402.141 2.42435 403.607 0.998584C404.265 0.33833 405.146 0.00341812 406.018 0.00341817Z" fill="white"/>
<path d="M393.217 64.7659C392.308 64.7659 391.399 64.4118 390.713 63.6942L363.34 35.4563C362.635 34.7291 362.134 33.7818 362.05 32.7483C361.939 31.4757 362.375 30.27 363.228 29.3801L390.611 1.14225C391.984 -0.273951 394.238 -0.417484 395.648 0.960437C397.058 2.33836 397.132 4.74972 395.722 6.2042L370.77 31.9445C370.547 32.1742 370.547 32.5569 370.77 32.7866L395.611 58.4121C397.03 59.8762 397.104 62.3449 395.639 63.7707C394.961 64.431 394.08 64.7659 393.208 64.7659L393.217 64.7659Z" fill="white"/>
</svg>
