<svg width="244" height="112" viewBox="0 0 244 112" fill="none" xmlns="http://www.w3.org/2000/svg">
<g clip-path="url(#clip0_49_2)">
<path d="M161.235 9.755L160.125 8.75L150.525 19.43L151.635 20.435C160.905 28.775 166.23 40.7 166.23 53.15C166.23 77.39 146.505 97.13 122.25 97.13C97.9949 97.13 78.2699 77.405 78.2699 53.15C78.2699 40.685 83.5949 28.76 92.8649 20.435L93.9749 19.43L84.3749 8.75L83.2649 9.755C70.9649 20.81 63.8999 36.635 63.8999 53.165C63.8999 85.34 90.0749 111.5 122.235 111.5C154.395 111.5 180.57 85.325 180.57 53.165C180.57 36.635 173.52 20.81 161.205 9.755H161.235Z" fill="#6E9FFF"/>
<path d="M129.435 0.5H115.065V57.5H129.435V0.5Z" fill="#6E9FFF"/>
<path d="M54.75 110L0.75 56L54.75 2L63.06 10.31L17.37 56L63.06 101.69L54.75 110Z" fill="#222222"/>
<path d="M189.75 2L243.75 56L189.75 110L181.44 101.69L227.13 56L181.44 10.31L189.75 2Z" fill="#222222"/>
</g>
<defs>
<clipPath id="clip0_49_2">
<rect width="243" height="111" fill="white" transform="translate(0.75 0.5)"/>
</clipPath>
</defs>
</svg>
