<svg width="243" height="111" viewBox="0 0 243 111" fill="none" xmlns="http://www.w3.org/2000/svg">
<g clip-path="url(#clip0_230_61)">
<path d="M160.485 9.255L159.375 8.25L149.775 18.93L150.885 19.935C160.155 28.275 165.48 40.2 165.48 52.65C165.48 76.89 145.755 96.63 121.5 96.63C97.2449 96.63 77.5199 76.905 77.5199 52.65C77.5199 40.185 82.8449 28.26 92.1149 19.935L93.2249 18.93L83.6249 8.25L82.5149 9.255C70.2149 20.31 63.1499 36.135 63.1499 52.665C63.1499 84.84 89.3249 111 121.485 111C153.645 111 179.82 84.825 179.82 52.665C179.82 36.135 172.77 20.31 160.455 9.255H160.485Z" fill="#6E9FFF"/>
<path d="M128.685 0H114.315V57H128.685V0Z" fill="#6E9FFF"/>
<path d="M54 109.5L0 55.5L54 1.5L62.31 9.81L16.62 55.5L62.31 101.19L54 109.5Z" fill="#6E9FFF"/>
<path d="M189 1.5L243 55.5L189 109.5L180.69 101.19L226.38 55.5L180.69 9.81L189 1.5Z" fill="#6E9FFF"/>
</g>
<defs>
<clipPath id="clip0_230_61">
<rect width="243" height="111" fill="white"/>
</clipPath>
</defs>
</svg>
